<mxfile host="app.diagrams.net" modified="2024-04-11T17:35:10.975Z" agent="Mozilla/5.0 (Windows NT 10.0; Win64; x64) AppleWebKit/537.36 (KHTML, like Gecko) Chrome/123.0.0.0 Safari/537.36" etag="X-NkrDZ2zVAVS5UWUzbz" version="24.1.0" type="github">
  <diagram id="C5RBs43oDa-KdzZeNtuy" name="Page-1">
    <mxGraphModel dx="1050" dy="522" grid="1" gridSize="10" guides="1" tooltips="1" connect="1" arrows="1" fold="1" page="1" pageScale="1" pageWidth="827" pageHeight="1169" math="0" shadow="0">
      <root>
        <mxCell id="WIyWlLk6GJQsqaUBKTNV-0" />
        <mxCell id="WIyWlLk6GJQsqaUBKTNV-1" parent="WIyWlLk6GJQsqaUBKTNV-0" />
        <mxCell id="JbMeMTcmok5l1WrjHu1D-0" value="&lt;i&gt;Estudante&lt;/i&gt;" style="swimlane;fontStyle=1;align=center;verticalAlign=top;childLayout=stackLayout;horizontal=1;startSize=26;horizontalStack=0;resizeParent=1;resizeParentMax=0;resizeLast=0;collapsible=1;marginBottom=0;whiteSpace=wrap;html=1;" vertex="1" parent="WIyWlLk6GJQsqaUBKTNV-1">
          <mxGeometry x="260" y="80" width="280" height="300" as="geometry" />
        </mxCell>
        <mxCell id="JbMeMTcmok5l1WrjHu1D-1" value="-nome: String&lt;div&gt;-ra: String&lt;/div&gt;&lt;div&gt;-email: String&lt;/div&gt;&lt;div&gt;-mediaNotas: float&lt;/div&gt;&lt;div&gt;-qtdAprovacoes: String&lt;/div&gt;" style="text;strokeColor=none;fillColor=none;align=left;verticalAlign=top;spacingLeft=4;spacingRight=4;overflow=hidden;rotatable=0;points=[[0,0.5],[1,0.5]];portConstraint=eastwest;whiteSpace=wrap;html=1;" vertex="1" parent="JbMeMTcmok5l1WrjHu1D-0">
          <mxGeometry y="26" width="280" height="84" as="geometry" />
        </mxCell>
        <mxCell id="JbMeMTcmok5l1WrjHu1D-2" value="" style="line;strokeWidth=1;fillColor=none;align=left;verticalAlign=middle;spacingTop=-1;spacingLeft=3;spacingRight=3;rotatable=0;labelPosition=right;points=[];portConstraint=eastwest;strokeColor=inherit;" vertex="1" parent="JbMeMTcmok5l1WrjHu1D-0">
          <mxGeometry y="110" width="280" height="8" as="geometry" />
        </mxCell>
        <mxCell id="JbMeMTcmok5l1WrjHu1D-3" value="+Estudante()&lt;div&gt;+getNome(): String&lt;/div&gt;&lt;div&gt;+setNome(nome: String): void&lt;/div&gt;&lt;div&gt;+getRa(): String&lt;/div&gt;&lt;div&gt;+setRa(ra: String): void&lt;/div&gt;&lt;div&gt;+getEmail(): String&lt;/div&gt;&lt;div&gt;+setEmail(email: String): void&lt;br&gt;+getMediaNotas(): float&lt;/div&gt;&lt;div&gt;+setMediaNotas(mediaNotas: float): void&lt;/div&gt;&lt;div&gt;+getQtdAprovacoes(): int&lt;/div&gt;&lt;div&gt;+setQtdAprovacoes(qtdAprovacoes: String): void&lt;/div&gt;" style="text;strokeColor=none;fillColor=none;align=left;verticalAlign=top;spacingLeft=4;spacingRight=4;overflow=hidden;rotatable=0;points=[[0,0.5],[1,0.5]];portConstraint=eastwest;whiteSpace=wrap;html=1;" vertex="1" parent="JbMeMTcmok5l1WrjHu1D-0">
          <mxGeometry y="118" width="280" height="182" as="geometry" />
        </mxCell>
        <mxCell id="JbMeMTcmok5l1WrjHu1D-4" value="EstudanteSuperior" style="swimlane;fontStyle=1;align=center;verticalAlign=top;childLayout=stackLayout;horizontal=1;startSize=26;horizontalStack=0;resizeParent=1;resizeParentMax=0;resizeLast=0;collapsible=1;marginBottom=0;whiteSpace=wrap;html=1;" vertex="1" parent="WIyWlLk6GJQsqaUBKTNV-1">
          <mxGeometry x="20" y="490" width="400" height="190" as="geometry" />
        </mxCell>
        <mxCell id="JbMeMTcmok5l1WrjHu1D-5" value="-instituicaoSegundoGrau: String&lt;div&gt;-anoConclusaoSegundoGrau: int&lt;/div&gt;" style="text;strokeColor=none;fillColor=none;align=left;verticalAlign=top;spacingLeft=4;spacingRight=4;overflow=hidden;rotatable=0;points=[[0,0.5],[1,0.5]];portConstraint=eastwest;whiteSpace=wrap;html=1;" vertex="1" parent="JbMeMTcmok5l1WrjHu1D-4">
          <mxGeometry y="26" width="400" height="44" as="geometry" />
        </mxCell>
        <mxCell id="JbMeMTcmok5l1WrjHu1D-6" value="" style="line;strokeWidth=1;fillColor=none;align=left;verticalAlign=middle;spacingTop=-1;spacingLeft=3;spacingRight=3;rotatable=0;labelPosition=right;points=[];portConstraint=eastwest;strokeColor=inherit;" vertex="1" parent="JbMeMTcmok5l1WrjHu1D-4">
          <mxGeometry y="70" width="400" height="8" as="geometry" />
        </mxCell>
        <mxCell id="JbMeMTcmok5l1WrjHu1D-7" value="+EstudanteSuperior()&lt;div&gt;+getInstituicaoSegundoGrau(): String&lt;/div&gt;&lt;div&gt;+setInstituicaoSegundoGrau(instituicaoSegundoGrau: String): void&lt;/div&gt;&lt;div&gt;+getAnoConclusaoSegundoGrau(): int&lt;/div&gt;&lt;div&gt;+setAnoConclusaoSegundoGrau(anoConclusaoSegundoGrau: int): void&lt;br&gt;&lt;/div&gt;" style="text;strokeColor=none;fillColor=none;align=left;verticalAlign=top;spacingLeft=4;spacingRight=4;overflow=hidden;rotatable=0;points=[[0,0.5],[1,0.5]];portConstraint=eastwest;whiteSpace=wrap;html=1;" vertex="1" parent="JbMeMTcmok5l1WrjHu1D-4">
          <mxGeometry y="78" width="400" height="112" as="geometry" />
        </mxCell>
      </root>
    </mxGraphModel>
  </diagram>
</mxfile>
